# Blender 4.5.0
# www.blender.org
mtllib Log.mtl
o Log
v -1.990845 -0.500000 -0.000001
v 2.009155 -0.500000 -0.000001
v -1.990845 -0.353553 0.353553
v 2.009155 -0.353554 0.353553
v -1.990845 0.000000 0.499999
v 2.009155 -0.000000 0.499999
v -1.990845 0.353554 0.353553
v 2.009155 0.353553 0.353553
v -1.990845 0.500000 -0.000001
v 2.009155 0.500000 -0.000001
v -1.990845 0.353554 -0.353555
v 2.009155 0.353553 -0.353555
v -1.990845 0.000000 -0.500001
v 2.009155 -0.000000 -0.500001
v -1.990845 -0.353553 -0.353555
v 2.009155 -0.353554 -0.353555
v 2.009155 -0.282610 0.282609
v 2.009155 -0.399671 -0.000001
v 2.009155 -0.000000 0.399669
v 2.009155 0.282609 0.282609
v 2.009155 0.399670 -0.000001
v 2.009155 0.282609 -0.282611
v 2.009155 -0.000000 -0.399671
v 2.009155 -0.282610 -0.282611
v -1.990845 -0.375386 -0.000001
v -1.990845 -0.265438 0.265437
v -1.990845 0.000000 0.375386
v -1.990845 0.265439 0.265437
v -1.990845 0.375387 -0.000001
v -1.990845 0.265439 -0.265439
v -1.990845 0.000000 -0.375388
v -1.990845 -0.265438 -0.265439
v 1.709778 -0.259736 0.259734
v 1.709778 -0.367322 -0.000001
v 1.709778 -0.000000 0.367322
v 1.709778 0.259736 0.259734
v 1.709778 0.367322 -0.000001
v 1.709778 0.259736 -0.259736
v 1.709778 -0.000000 -0.367324
v 1.709778 -0.259736 -0.259736
v -1.755562 -0.345003 -0.000001
v -1.755562 -0.243954 0.243953
v -1.755562 0.000000 0.345002
v -1.755562 0.243955 0.243953
v -1.755562 0.345004 -0.000001
v -1.755562 0.243955 -0.243955
v -1.755562 0.000000 -0.345004
v -1.755562 -0.243954 -0.243955
v 0.009155 -0.407984 -0.000001
v 0.009155 -0.288488 0.288487
v 0.009155 -0.000000 0.407983
v 0.009155 0.288488 0.288487
v 0.009155 0.407984 -0.000001
v 0.009155 0.288488 -0.288489
v 0.009155 -0.000000 -0.407985
v 0.009155 -0.288488 -0.288489
vn -0.0425 -0.9230 0.3823
vn -0.0425 -0.3823 0.9230
vn -0.0425 0.3823 0.9230
vn -0.0425 0.9230 0.3823
vn -0.0425 0.9230 -0.3823
vn -0.0425 0.3823 -0.9230
vn 1.0000 -0.0000 -0.0000
vn -0.0425 -0.3823 -0.9230
vn -0.0425 -0.9230 -0.3823
vn -1.0000 -0.0000 -0.0000
vn 0.0993 -0.3808 0.9193
vn -0.1185 0.9174 -0.3800
vn 0.0993 -0.9193 -0.3808
vn 0.0993 0.3808 -0.9193
vn 0.0993 0.3808 0.9193
vn 0.0993 -0.9193 0.3808
vn 0.0993 -0.3808 -0.9193
vn 0.0993 0.9193 -0.3808
vn 0.0993 0.9193 0.3808
vn -0.1185 0.9174 0.3800
vn -0.1185 -0.3800 0.9174
vn -0.1185 -0.9174 -0.3800
vn -0.1185 0.3800 -0.9174
vn -0.1185 0.3800 0.9174
vn -0.1185 -0.9174 0.3800
vn -0.1185 -0.3800 -0.9174
vn 0.0425 -0.9230 -0.3823
vn 0.0425 -0.3823 -0.9230
vn 0.0425 0.3823 -0.9230
vn 0.0425 0.9230 -0.3823
vn 0.0425 0.9230 0.3823
vn 0.0425 0.3823 0.9230
vn 0.0425 -0.3823 0.9230
vn 0.0425 -0.9230 0.3823
vt 1.000000 1.000000
vt 0.875000 0.750000
vt 1.000000 0.750000
vt 0.750000 1.000000
vt 0.750000 0.750000
vt 0.625000 0.750000
vt 0.625000 1.000000
vt 0.500000 0.750000
vt 0.500000 1.000000
vt 0.375000 0.750000
vt 0.250000 1.000000
vt 0.250000 0.750000
vt 0.125000 0.750000
vt 0.125000 1.000000
vt 0.000000 0.750000
vt 0.625000 0.500000
vt 0.750000 0.500000
vt 0.375000 1.000000
vt 0.875000 1.000000
vt 0.000000 1.000000
vt 1.000000 0.500000
vt 0.875000 0.500000
vt 0.375000 0.500000
vt 0.250000 0.500000
vt 0.500000 0.500000
vt 0.125000 0.500000
vt 0.000000 0.500000
vt 0.010000 0.250000
vt 0.250000 0.010000
vt 0.490000 0.250000
vt 0.919706 0.080294
vt 0.580294 0.080294
vt 0.580294 0.419706
vt 0.419706 0.419706
vt 0.250000 0.490000
vt 0.080294 0.419706
vt 0.080294 0.080294
vt 0.419706 0.080294
vt 0.750000 0.490000
vt 0.919706 0.419706
vt 0.990000 0.250000
vt 0.750000 0.010000
vt 0.510000 0.250000
s 1
usemtl Brown_Light.003
f 39/28/7 37/29/7 35/30/7
f 44/31/10 46/32/10 48/33/10
f 35/30/7 33/34/7 34/35/7
f 34/35/7 40/36/7 39/28/7
f 39/28/7 38/37/7 37/29/7
f 37/29/7 36/38/7 35/30/7
f 35/30/7 34/35/7 39/28/7
f 48/33/10 41/39/10 42/40/10
f 42/40/10 43/41/10 44/31/10
f 44/31/10 45/42/10 46/32/10
f 46/32/10 47/43/10 48/33/10
f 48/33/10 42/40/10 44/31/10
usemtl Brown_Dark.003
f 2/1/1 50/2/1 49/3/1
f 50/2/2 6/4/2 51/5/2
f 6/4/3 52/6/3 51/5/3
f 8/7/4 53/8/4 52/6/4
f 10/9/5 54/10/5 53/8/5
f 54/10/6 14/11/6 55/12/6
f 10/9/7 20/7/7 21/9/7
f 14/11/8 56/13/8 55/12/8
f 16/14/9 49/15/9 56/13/9
f 7/16/10 27/17/10 5/17/10
f 22/18/11 39/11/11 23/11/11
f 14/11/7 24/14/7 16/14/7
f 6/4/7 17/19/7 19/4/7
f 10/9/7 22/18/7 12/18/7
f 2/20/7 24/14/7 18/20/7
f 2/1/7 17/19/7 4/19/7
f 6/4/7 20/7/7 8/7/7
f 14/11/7 22/18/7 23/11/7
f 25/21/12 42/22/12 41/21/12
f 11/23/10 31/24/10 30/23/10
f 9/25/10 28/16/10 7/16/10
f 15/26/10 31/24/10 13/24/10
f 3/22/10 27/17/10 26/22/10
f 9/25/10 30/23/10 29/25/10
f 1/27/10 32/26/10 15/26/10
f 1/21/10 26/22/10 25/21/10
f 21/9/13 36/7/13 37/9/13
f 17/19/14 35/4/14 19/4/14
f 24/14/15 39/11/15 40/14/15
f 21/9/16 38/18/16 22/18/16
f 20/7/17 35/4/17 36/7/17
f 18/1/18 33/19/18 17/19/18
f 18/20/19 40/14/19 34/20/19
f 25/27/20 48/26/20 32/26/20
f 30/23/21 47/24/21 46/23/21
f 29/25/22 44/16/22 28/16/22
f 26/22/23 43/17/23 42/22/23
f 32/26/24 47/24/24 31/24/24
f 29/25/25 46/23/25 45/25/25
f 28/16/26 43/17/26 27/17/26
f 15/26/27 49/15/27 1/27/27
f 55/12/28 15/26/28 13/24/28
f 54/10/29 13/24/29 11/23/29
f 53/8/30 11/23/30 9/25/30
f 52/6/31 9/25/31 7/16/31
f 51/5/32 7/16/32 5/17/32
f 50/2/33 5/17/33 3/22/33
f 49/3/34 3/22/34 1/21/34
f 2/1/1 4/19/1 50/2/1
f 50/2/2 4/19/2 6/4/2
f 6/4/3 8/7/3 52/6/3
f 8/7/4 10/9/4 53/8/4
f 10/9/5 12/18/5 54/10/5
f 54/10/6 12/18/6 14/11/6
f 10/9/7 8/7/7 20/7/7
f 14/11/8 16/14/8 56/13/8
f 16/14/9 2/20/9 49/15/9
f 7/16/10 28/16/10 27/17/10
f 22/18/11 38/18/11 39/11/11
f 14/11/7 23/11/7 24/14/7
f 6/4/7 4/19/7 17/19/7
f 10/9/7 21/9/7 22/18/7
f 2/20/7 16/14/7 24/14/7
f 2/1/7 18/1/7 17/19/7
f 6/4/7 19/4/7 20/7/7
f 14/11/7 12/18/7 22/18/7
f 25/21/12 26/22/12 42/22/12
f 11/23/10 13/24/10 31/24/10
f 9/25/10 29/25/10 28/16/10
f 15/26/10 32/26/10 31/24/10
f 3/22/10 5/17/10 27/17/10
f 9/25/10 11/23/10 30/23/10
f 1/27/10 25/27/10 32/26/10
f 1/21/10 3/22/10 26/22/10
f 21/9/13 20/7/13 36/7/13
f 17/19/14 33/19/14 35/4/14
f 24/14/15 23/11/15 39/11/15
f 21/9/16 37/9/16 38/18/16
f 20/7/17 19/4/17 35/4/17
f 18/1/18 34/1/18 33/19/18
f 18/20/19 24/14/19 40/14/19
f 25/27/20 41/27/20 48/26/20
f 30/23/21 31/24/21 47/24/21
f 29/25/22 45/25/22 44/16/22
f 26/22/23 27/17/23 43/17/23
f 32/26/24 48/26/24 47/24/24
f 29/25/25 30/23/25 46/23/25
f 28/16/26 44/16/26 43/17/26
f 15/26/27 56/13/27 49/15/27
f 55/12/28 56/13/28 15/26/28
f 54/10/29 55/12/29 13/24/29
f 53/8/30 54/10/30 11/23/30
f 52/6/31 53/8/31 9/25/31
f 51/5/32 52/6/32 7/16/32
f 50/2/33 51/5/33 5/17/33
f 49/3/34 50/2/34 3/22/34
