# Blender 4.5.0
# www.blender.org
mtllib GrassPlateform.mtl
o Small_Grass_Platform2
v -0.949993 -0.596253 0.949999
v -0.949993 -0.579375 0.999999
v -0.999993 -0.579375 0.949999
v -0.949993 -0.591309 0.985355
v -0.978861 -0.589119 0.978867
v -0.985349 -0.579375 0.985355
v -0.985349 -0.591309 0.950000
v -0.949993 0.579375 0.999999
v -0.949993 0.596253 0.949999
v -0.999993 0.579375 0.949999
v -0.949993 0.591309 0.985355
v -0.978861 0.589119 0.978867
v -0.985349 0.591309 0.949999
v -0.985349 0.579375 0.985355
v -0.949993 -0.596253 -0.950000
v -0.999993 -0.579375 -0.950000
v -0.949993 -0.579375 -1.000000
v -0.985349 -0.591310 -0.950001
v -0.978861 -0.589120 -0.978868
v -0.985349 -0.579375 -0.985356
v -0.949993 -0.591310 -0.985356
v -0.949993 0.596252 -0.950001
v -0.949993 0.579374 -1.000001
v -0.999993 0.579374 -0.950001
v -0.949993 0.591309 -0.985356
v -0.978861 0.589119 -0.978868
v -0.985349 0.579374 -0.985356
v -0.985349 0.591309 -0.950001
v 0.950006 -0.596253 0.949999
v 1.000007 -0.579375 0.949999
v 0.950006 -0.579375 0.999999
v 0.985362 -0.591309 0.950000
v 0.978874 -0.589119 0.978867
v 0.985362 -0.579375 0.985355
v 0.950006 -0.591309 0.985355
v 0.950006 0.596253 0.949999
v 0.950006 0.579375 0.999999
v 1.000007 0.579375 0.949999
v 0.950006 0.591309 0.985355
v 0.978874 0.589119 0.978867
v 0.985362 0.579375 0.985355
v 0.985362 0.591309 0.949999
v 0.950006 -0.596253 -0.950000
v 0.950006 -0.579375 -1.000000
v 1.000007 -0.579375 -0.950000
v 0.950006 -0.591310 -0.985356
v 0.978874 -0.589120 -0.978868
v 0.985362 -0.579375 -0.985356
v 0.985362 -0.591310 -0.950001
v 0.950006 0.596252 -0.950001
v 1.000007 0.579374 -0.950001
v 0.950006 0.579374 -1.000001
v 0.985362 0.591309 -0.950001
v 0.978874 0.589119 -0.978868
v 0.985362 0.579374 -0.985356
v 0.950006 0.591309 -0.985356
v -0.949993 -0.289687 0.999999
v -0.949993 0.000000 0.999999
v -0.949993 0.289687 0.999999
v -0.985349 0.289687 0.985355
v -0.985349 -0.000000 0.985355
v -0.985349 -0.289687 0.985355
v -0.999993 0.289687 0.949999
v -0.999993 -0.000000 0.949999
v -0.999993 -0.289687 0.949999
v -0.949993 0.289687 -1.000000
v -0.949993 -0.000000 -1.000000
v -0.949993 -0.289688 -1.000000
v -0.985349 -0.289688 -0.985356
v -0.985349 -0.000000 -0.985356
v -0.985349 0.289687 -0.985356
v -0.999993 -0.289688 -0.950000
v -0.999993 -0.000000 -0.950001
v -0.999993 0.289687 -0.950001
v 1.000007 0.289687 -0.950001
v 1.000007 -0.000000 -0.950001
v 1.000007 -0.289688 -0.950000
v 0.985362 -0.289688 -0.985356
v 0.985362 -0.000000 -0.985356
v 0.985362 0.289687 -0.985356
v 0.950006 -0.289688 -1.000000
v 0.950006 -0.000000 -1.000000
v 0.950006 0.289687 -1.000000
v 0.950006 0.289687 0.999999
v 0.950006 -0.000000 0.999999
v 0.950006 -0.289687 0.999999
v 0.985362 -0.289687 0.985355
v 0.985362 -0.000000 0.985355
v 0.985362 0.289687 0.985355
v 1.000007 -0.289687 0.949999
v 1.000007 -0.000000 0.949999
v 1.000007 0.289687 0.949999
v -0.949993 -0.596253 -0.316667
v -0.949993 -0.596253 0.316666
v -0.985349 -0.591309 0.316666
v -0.985349 -0.591310 -0.316667
v -0.999993 -0.579375 0.316666
v -0.999993 -0.579375 -0.316667
v -0.949993 0.596253 0.316666
v -0.949993 0.596253 -0.316667
v -0.985349 0.591309 -0.316667
v -0.985349 0.591309 0.316666
v -0.999993 0.579375 -0.316667
v -0.999993 0.579375 0.316666
v 0.950006 -0.596253 0.316666
v 0.950006 -0.596253 -0.316667
v 0.985362 -0.591310 -0.316667
v 0.985362 -0.591309 0.316666
v 1.000007 -0.579375 -0.316667
v 1.000007 -0.579375 0.316666
v 0.950006 0.596253 -0.316667
v 0.950006 0.596253 0.316666
v 0.985362 0.591309 0.316666
v 0.985362 0.591309 -0.316667
v 1.000007 0.579375 0.316666
v 1.000007 0.579375 -0.316667
v -0.999993 -0.289688 0.316666
v -0.999993 -0.289688 -0.316667
v -0.999993 -0.000000 0.316666
v -0.999993 -0.000000 -0.316667
v -0.999993 0.289687 0.316666
v -0.999993 0.289687 -0.316667
v 1.000007 -0.289688 -0.316667
v 1.000007 -0.289688 0.316666
v 1.000007 -0.000000 -0.316667
v 1.000007 -0.000000 0.316666
v 1.000007 0.289687 -0.316667
v 1.000007 0.289687 0.316666
v 0.316673 -0.596253 -0.950000
v -0.316660 -0.596253 -0.950000
v -0.316660 -0.591310 -0.985356
v 0.316673 -0.591310 -0.985356
v -0.316660 -0.579375 -1.000000
v 0.316673 -0.579375 -1.000000
v -0.316660 0.596252 -0.950001
v 0.316673 0.596252 -0.950001
v 0.316673 0.591309 -0.985356
v -0.316660 0.591309 -0.985356
v 0.316673 0.579374 -1.000001
v -0.316660 0.579374 -1.000001
v -0.316660 -0.596253 0.949999
v 0.316673 -0.596253 0.949999
v 0.316673 -0.591309 0.985355
v -0.316660 -0.591309 0.985355
v 0.316673 -0.579375 0.999999
v -0.316660 -0.579375 0.999999
v 0.316673 0.596253 0.949999
v -0.316660 0.596253 0.949999
v -0.316660 0.591309 0.985355
v 0.316673 0.591309 0.985355
v -0.316660 0.579375 0.999999
v 0.316673 0.579375 0.999999
v -0.316660 -0.289688 -1.000000
v 0.316673 -0.289688 -1.000000
v -0.316660 -0.000000 -1.000000
v 0.316673 -0.000000 -1.000000
v -0.316660 0.289687 -1.000000
v 0.316673 0.289687 -1.000000
v 0.316673 -0.289687 0.999999
v -0.316660 -0.289687 0.999999
v 0.316673 0.000000 0.999999
v -0.316660 0.000000 0.999999
v 0.316673 0.289687 0.999999
v -0.316660 0.289687 0.999999
v 0.316673 -0.596253 -0.316667
v -0.316660 -0.596253 -0.316667
v 0.316673 -0.596253 0.316666
v -0.316660 -0.596253 0.316666
v -0.316660 0.596253 -0.316667
v 0.316673 0.596253 -0.316667
v -0.316660 0.596253 0.316666
v 0.316673 0.596253 0.316666
vn -0.0000 0.5077 0.8615
vn -0.1951 -0.0000 0.9808
vn -0.0000 -0.0000 1.0000
vn 0.8615 0.5077 -0.0000
vn 0.9808 -0.0000 0.1951
vn 1.0000 -0.0000 -0.0000
vn -0.0670 0.9978 -0.0000
vn -0.0000 0.9978 0.0670
vn -0.0000 1.0000 -0.0000
vn -0.8615 0.5077 -0.0000
vn -0.9808 -0.0000 -0.1951
vn -1.0000 -0.0000 -0.0000
vn -0.0000 0.5077 -0.8615
vn 0.1951 -0.0000 -0.9808
vn -0.0000 -0.0000 -1.0000
vn -0.0624 -0.9961 0.0624
vn -0.3046 -0.9024 0.3046
vn -0.3191 -0.9453 0.0675
vn -0.1604 -0.4753 0.8651
vn -0.0675 -0.9453 0.3191
vn -0.8651 -0.4753 0.1604
vn -0.6465 -0.4050 0.6465
vn -0.1604 0.4753 0.8651
vn -0.3046 0.9024 0.3046
vn -0.6465 0.4050 0.6465
vn -0.0624 0.9961 0.0624
vn -0.0675 0.9453 0.3191
vn -0.8651 0.4753 0.1604
vn -0.3191 0.9453 0.0675
vn -0.0624 -0.9961 -0.0624
vn -0.3046 -0.9024 -0.3046
vn -0.0675 -0.9453 -0.3191
vn -0.8651 -0.4753 -0.1604
vn -0.3191 -0.9453 -0.0675
vn -0.1604 -0.4753 -0.8651
vn -0.6465 -0.4050 -0.6465
vn -0.0624 0.9961 -0.0624
vn -0.3046 0.9024 -0.3046
vn -0.3191 0.9453 -0.0675
vn -0.1604 0.4753 -0.8651
vn -0.0675 0.9453 -0.3191
vn -0.8651 0.4753 -0.1604
vn -0.6465 0.4050 -0.6465
vn 0.0624 -0.9961 0.0624
vn 0.3046 -0.9024 0.3046
vn 0.0675 -0.9453 0.3191
vn 0.8651 -0.4753 0.1604
vn 0.3191 -0.9453 0.0675
vn 0.1604 -0.4753 0.8651
vn 0.6465 -0.4050 0.6465
vn 0.0624 0.9961 0.0624
vn 0.3046 0.9024 0.3046
vn 0.3191 0.9453 0.0675
vn 0.1604 0.4753 0.8651
vn 0.0675 0.9453 0.3191
vn 0.8651 0.4753 0.1604
vn 0.6465 0.4050 0.6465
vn 0.0624 -0.9961 -0.0624
vn 0.3046 -0.9024 -0.3046
vn 0.3191 -0.9453 -0.0675
vn 0.1604 -0.4753 -0.8651
vn 0.0675 -0.9453 -0.3191
vn 0.8651 -0.4753 -0.1604
vn 0.6465 -0.4050 -0.6465
vn 0.0624 0.9961 -0.0624
vn 0.3046 0.9024 -0.3046
vn 0.0675 0.9453 -0.3191
vn 0.8651 0.4753 -0.1604
vn 0.3191 0.9453 -0.0675
vn 0.1604 0.4753 -0.8651
vn 0.6465 0.4050 -0.6465
vn -0.3198 -0.9475 -0.0000
vn -0.0670 -0.9978 -0.0000
vn -0.8615 -0.5077 -0.0000
vn -0.7071 -0.0000 0.7071
vn -0.9808 -0.0000 0.1951
vn -0.3198 0.9475 -0.0000
vn -0.7071 -0.0000 -0.7071
vn -0.1951 -0.0000 -0.9808
vn -0.0000 -0.9475 -0.3198
vn -0.0000 -0.9978 -0.0670
vn -0.0000 -0.5077 -0.8616
vn -0.0000 0.9475 -0.3198
vn -0.0000 0.9978 -0.0670
vn 0.7071 -0.0000 -0.7071
vn 0.9808 -0.0000 -0.1951
vn 0.3198 -0.9475 -0.0000
vn 0.0670 -0.9978 -0.0000
vn 0.8615 -0.5077 -0.0000
vn 0.3198 0.9475 -0.0000
vn 0.0670 0.9978 -0.0000
vn 0.7071 -0.0000 0.7071
vn 0.1951 -0.0000 0.9808
vn -0.0000 -0.9475 0.3198
vn -0.0000 -0.9978 0.0670
vn -0.0000 -0.5077 0.8615
vn -0.0000 0.9475 0.3198
vn -0.0000 -1.0000 -0.0000
vt 0.618750 0.914583
vt 0.559375 0.993750
vt 0.559375 0.914583
vt 0.618750 0.664583
vt 0.559375 0.743750
vt 0.559375 0.664583
vt 0.868750 0.664583
vt 0.789583 0.743750
vt 0.789583 0.664583
vt 0.618750 0.164583
vt 0.559375 0.243750
vt 0.559375 0.164583
vt 0.618750 0.414583
vt 0.559375 0.493750
vt 0.559375 0.414583
vt 0.131250 0.743750
vt 0.127642 0.750000
vt 0.125000 0.743750
vt 0.381250 0.993750
vt 0.377642 1.000000
vt 0.375000 0.993750
vt 0.381250 0.006250
vt 0.375000 0.002642
vt 0.381250 0.000000
vt 0.618750 0.993750
vt 0.625000 0.997358
vt 0.618750 1.000000
vt 0.868750 0.743750
vt 0.875000 0.747358
vt 0.868750 0.750000
vt 0.618750 0.006250
vt 0.622358 0.000000
vt 0.625000 0.006250
vt 0.131250 0.506250
vt 0.125000 0.502642
vt 0.131250 0.500000
vt 0.381250 0.243750
vt 0.377642 0.250000
vt 0.375000 0.243750
vt 0.381250 0.256250
vt 0.375000 0.252642
vt 0.381250 0.250000
vt 0.868750 0.506250
vt 0.872358 0.500000
vt 0.875000 0.506250
vt 0.618750 0.256250
vt 0.622358 0.250000
vt 0.625000 0.256250
vt 0.618750 0.243750
vt 0.625000 0.247358
vt 0.618750 0.250000
vt 0.368750 0.743750
vt 0.375881 0.750000
vt 0.368750 0.750000
vt 0.381250 0.743750
vt 0.375000 0.743750
vt 0.381250 0.756250
vt 0.381250 0.750000
vt 0.631250 0.743750
vt 0.625000 0.749119
vt 0.625000 0.743750
vt 0.618750 0.756250
vt 0.625000 0.756250
vt 0.618750 0.743750
vt 0.618750 0.750000
vt 0.368750 0.506250
vt 0.375000 0.500881
vt 0.375000 0.506250
vt 0.381250 0.493750
vt 0.375000 0.493750
vt 0.381250 0.506250
vt 0.381250 0.500000
vt 0.631250 0.506250
vt 0.624120 0.500000
vt 0.631250 0.500000
vt 0.618750 0.506250
vt 0.625000 0.506250
vt 0.618750 0.493750
vt 0.618750 0.500000
vt 0.125000 0.664583
vt 0.131250 0.664583
vt 0.375000 0.085417
vt 0.381250 0.085417
vt 0.559375 1.000000
vt 0.618750 0.000000
vt 0.559375 0.006250
vt 0.559375 0.000000
vt 0.875000 0.585417
vt 0.868750 0.585417
vt 0.625000 0.164583
vt 0.440625 0.250000
vt 0.440625 0.256250
vt 0.440625 0.243750
vt 0.210417 0.500000
vt 0.210417 0.506250
vt 0.375000 0.256250
vt 0.381250 0.335417
vt 0.375000 0.335417
vt 0.710417 0.500000
vt 0.710417 0.506250
vt 0.625000 0.493750
vt 0.625000 0.414583
vt 0.440625 0.500000
vt 0.440625 0.506250
vt 0.440625 0.493750
vt 0.375000 0.585417
vt 0.368750 0.585417
vt 0.381250 0.585417
vt 0.625000 0.664583
vt 0.631250 0.664583
vt 0.440625 0.750000
vt 0.440625 0.756250
vt 0.440625 0.743750
vt 0.289583 0.750000
vt 0.289583 0.743750
vt 0.375000 0.756250
vt 0.381250 0.835417
vt 0.375000 0.835417
vt 0.789583 0.750000
vt 0.625000 0.993750
vt 0.625000 0.914583
vt 0.368750 0.664583
vt 0.289583 0.664583
vt 0.559375 0.750000
vt 0.500000 0.750000
vt 0.500000 0.743750
vt 0.559375 0.756250
vt 0.500000 0.756250
vt 0.559375 0.500000
vt 0.500000 0.500000
vt 0.500000 0.493750
vt 0.559375 0.506250
vt 0.500000 0.506250
vt 0.559375 0.250000
vt 0.500000 0.250000
vt 0.500000 0.243750
vt 0.559375 0.256250
vt 0.500000 0.256250
vt 0.440625 0.000000
vt 0.500000 0.000000
vt 0.440625 0.006250
vt 0.500000 0.006250
vt 0.440625 0.993750
vt 0.381250 1.000000
vt 0.500000 0.993750
vt 0.440625 1.000000
vt 0.500000 1.000000
vt 0.440625 0.414583
vt 0.381250 0.414583
vt 0.500000 0.414583
vt 0.440625 0.164583
vt 0.381250 0.164583
vt 0.500000 0.164583
vt 0.440625 0.664583
vt 0.381250 0.664583
vt 0.500000 0.664583
vt 0.440625 0.914583
vt 0.381250 0.914583
vt 0.500000 0.914583
vt 0.500000 0.585417
vt 0.559375 0.585417
vt 0.440625 0.585417
vt 0.500000 0.085417
vt 0.559375 0.085417
vt 0.440625 0.085417
vt 0.289583 0.585417
vt 0.289583 0.506250
vt 0.625000 0.585417
vt 0.618750 0.585417
vt 0.631250 0.585417
vt 0.375000 0.664583
vt 0.625000 0.085417
vt 0.618750 0.085417
vt 0.875000 0.664583
vt 0.875000 0.743750
vt 0.375000 0.164583
vt 0.131250 0.585417
vt 0.125000 0.506250
vt 0.125000 0.585417
vt 0.789583 0.585417
vt 0.789583 0.506250
vt 0.710417 0.585417
vt 0.710417 0.664583
vt 0.210417 0.585417
vt 0.210417 0.664583
vt 0.500000 0.835417
vt 0.559375 0.835417
vt 0.440625 0.835417
vt 0.500000 0.335417
vt 0.559375 0.335417
vt 0.440625 0.335417
vt 0.210417 0.743750
vt 0.625000 0.835417
vt 0.618750 0.835417
vt 0.710417 0.743750
vt 0.631250 0.750000
vt 0.710417 0.750000
vt 0.375000 0.914583
vt 0.131250 0.750000
vt 0.210417 0.750000
vt 0.625000 0.335417
vt 0.618750 0.335417
vt 0.868750 0.500000
vt 0.789583 0.500000
vt 0.375000 0.414583
vt 0.368750 0.500000
vt 0.289583 0.500000
vt 0.375000 0.006250
vt 0.625000 0.243750
s 1
usemtl Green_Dark
f 151/1/1 59/2/2 164/3/3
f 115/4/4 92/5/5 128/6/6
f 99/7/7 148/8/8 171/9/9
f 103/10/10 74/11/11 122/12/12
f 139/13/13 83/14/14 158/15/15
f 1/16/16 5/17/17 7/18/18
f 2/19/19 5/20/17 4/21/20
f 3/22/21 5/23/17 6/24/22
f 8/25/23 12/26/24 14/27/25
f 9/28/26 12/29/24 11/30/27
f 10/31/28 12/32/24 13/33/29
f 15/34/30 19/35/31 21/36/32
f 16/37/33 19/38/31 18/39/34
f 17/40/35 19/41/31 20/42/36
f 22/43/37 26/44/38 28/45/39
f 23/46/40 26/47/38 25/48/41
f 24/49/42 26/50/38 27/51/43
f 29/52/44 33/53/45 35/54/46
f 30/55/47 33/53/45 32/56/48
f 31/57/49 33/53/45 34/58/50
f 36/59/51 40/60/52 42/61/53
f 37/62/54 40/60/52 39/63/55
f 38/64/56 40/60/52 41/65/57
f 43/66/58 47/67/59 49/68/60
f 44/69/61 47/67/59 46/70/62
f 45/71/63 47/67/59 48/72/64
f 50/73/65 54/74/66 56/75/67
f 51/76/68 54/74/66 53/77/69
f 52/78/70 54/74/66 55/79/71
f 1/16/16 95/80/72 94/81/73
f 95/82/72 3/22/21 97/83/74
f 8/25/23 60/84/75 59/2/2
f 14/85/25 63/86/76 60/87/75
f 22/43/37 101/88/77 100/89/7
f 101/90/77 24/49/42 103/10/10
f 15/34/30 131/94/80 130/95/81
f 21/96/32 133/97/82 131/98/80
f 50/73/65 137/99/83 136/100/84
f 56/101/67 139/13/13 137/102/83
f 43/66/58 107/106/87 106/107/88
f 107/106/87 45/71/63 109/108/89
f 36/59/51 113/109/90 112/110/91
f 113/109/90 38/64/56 115/4/4
f 29/52/44 143/114/94 142/115/95
f 35/116/46 145/117/96 143/118/94
f 9/28/26 149/119/97 148/8/8
f 11/120/27 151/1/1 149/121/97
f 105/122/88 142/115/95 167/123/98
f 89/124/92 38/64/56 41/65/57
f 84/127/93 41/65/57 37/62/54
f 80/129/85 52/78/70 55/79/71
f 75/132/86 55/79/71 51/76/68
f 71/134/78 24/49/42 27/51/43
f 66/137/79 27/51/43 23/46/40
f 43/66/58 165/166/98 129/167/81
f 106/107/88 167/123/98 165/166/98
f 114/168/90 51/76/68 53/77/69
f 113/109/90 116/169/4 114/168/90
f 111/170/91 53/77/69 50/73/65
f 112/110/91 114/168/90 111/170/91
f 108/171/87 30/55/47 32/56/48
f 107/106/87 110/155/89 108/171/87
f 29/52/44 108/171/87 32/56/48
f 106/107/88 108/171/87 105/122/88
f 102/172/77 10/31/28 13/33/29
f 101/90/77 104/173/10 102/172/77
f 9/28/26 102/174/77 13/175/29
f 100/89/7 102/174/77 99/7/7
f 96/176/72 16/37/33 18/39/34
f 95/82/72 98/152/74 96/176/72
f 93/177/73 18/178/34 15/34/30
f 94/81/73 96/179/72 93/177/73
f 10/31/28 121/164/12 63/86/76
f 104/173/10 122/12/12 121/164/12
f 22/43/37 169/180/9 135/181/84
f 100/89/7 171/9/9 169/180/9
f 51/76/68 127/161/6 75/132/86
f 116/169/4 128/6/6 127/161/6
f 170/182/9 112/110/91 111/170/91
f 169/180/9 172/183/9 170/182/9
f 136/100/84 111/170/91 50/73/65
f 135/181/84 170/182/9 136/100/84
f 166/184/98 94/81/73 93/177/73
f 165/166/98 168/185/98 166/184/98
f 130/95/81 93/177/73 15/34/30
f 129/167/81 166/184/98 130/95/81
f 168/185/98 1/16/16 94/81/73
f 167/123/98 141/192/95 168/185/98
f 150/193/97 37/62/54 39/63/55
f 149/121/97 152/194/1 150/193/97
f 147/195/8 39/196/55 36/59/51
f 148/8/8 150/197/97 147/195/8
f 144/198/94 2/19/19 4/21/20
f 143/118/94 146/158/96 144/198/94
f 141/192/95 4/199/20 1/16/16
f 142/115/95 144/200/94 141/192/95
f 138/201/83 23/46/40 25/48/41
f 137/102/83 140/202/13 138/201/83
f 135/181/84 25/203/41 22/43/37
f 136/100/84 138/204/83 135/181/84
f 132/205/80 44/69/61 46/70/62
f 131/98/80 134/149/82 132/205/80
f 129/167/81 46/206/62 43/66/58
f 130/95/81 132/207/80 129/167/81
f 23/46/40 157/190/15 66/137/79
f 140/202/13 158/15/15 157/190/15
f 172/183/9 36/59/51 112/110/91
f 171/9/9 147/195/8 172/183/9
f 37/62/54 163/187/3 84/127/93
f 152/194/1 164/3/3 163/187/3
f 151/1/1 8/25/23 59/2/2
f 115/4/4 38/64/56 92/5/5
f 99/7/7 9/28/26 148/8/8
f 103/10/10 24/49/42 74/11/11
f 139/13/13 52/78/70 83/14/14
f 1/16/16 4/199/20 5/17/17
f 2/19/19 6/144/22 5/20/17
f 3/22/21 7/208/18 5/23/17
f 8/25/23 11/120/27 12/26/24
f 9/28/26 13/175/29 12/29/24
f 10/31/28 14/85/25 12/32/24
f 15/34/30 18/178/34 19/35/31
f 16/37/33 20/42/36 19/38/31
f 17/40/35 21/96/32 19/41/31
f 22/43/37 25/203/41 26/44/38
f 23/46/40 27/51/43 26/47/38
f 24/49/42 28/209/39 26/50/38
f 29/52/44 32/56/48 33/53/45
f 30/55/47 34/58/50 33/53/45
f 31/57/49 35/116/46 33/53/45
f 36/59/51 39/196/55 40/60/52
f 37/62/54 41/65/57 40/60/52
f 38/64/56 42/61/53 40/60/52
f 43/66/58 46/206/62 47/67/59
f 44/69/61 48/72/64 47/67/59
f 45/71/63 49/68/60 47/67/59
f 50/73/65 53/77/69 54/74/66
f 51/76/68 55/79/71 54/74/66
f 52/78/70 56/101/67 54/74/66
f 1/16/16 7/18/18 95/80/72
f 95/82/72 7/208/18 3/22/21
f 8/25/23 14/27/25 60/84/75
f 14/85/25 10/31/28 63/86/76
f 22/43/37 28/45/39 101/88/77
f 101/90/77 28/209/39 24/49/42
f 15/34/30 21/36/32 131/94/80
f 21/96/32 17/40/35 133/97/82
f 50/73/65 56/75/67 137/99/83
f 56/101/67 52/78/70 139/13/13
f 43/66/58 49/68/60 107/106/87
f 107/106/87 49/68/60 45/71/63
f 36/59/51 42/61/53 113/109/90
f 113/109/90 42/61/53 38/64/56
f 29/52/44 35/54/46 143/114/94
f 35/116/46 31/57/49 145/117/96
f 9/28/26 11/30/27 149/119/97
f 11/120/27 8/25/23 151/1/1
f 105/122/88 29/52/44 142/115/95
f 89/124/92 92/5/5 38/64/56
f 84/127/93 89/124/92 41/65/57
f 80/129/85 83/14/14 52/78/70
f 75/132/86 80/129/85 55/79/71
f 71/134/78 74/11/11 24/49/42
f 66/137/79 71/134/78 27/51/43
f 43/66/58 106/107/88 165/166/98
f 106/107/88 105/122/88 167/123/98
f 114/168/90 116/169/4 51/76/68
f 113/109/90 115/4/4 116/169/4
f 111/170/91 114/168/90 53/77/69
f 112/110/91 113/109/90 114/168/90
f 108/171/87 110/155/89 30/55/47
f 107/106/87 109/108/89 110/155/89
f 29/52/44 105/122/88 108/171/87
f 106/107/88 107/106/87 108/171/87
f 102/172/77 104/173/10 10/31/28
f 101/90/77 103/10/10 104/173/10
f 9/28/26 99/7/7 102/174/77
f 100/89/7 101/88/77 102/174/77
f 96/176/72 98/152/74 16/37/33
f 95/82/72 97/83/74 98/152/74
f 93/177/73 96/179/72 18/178/34
f 94/81/73 95/80/72 96/179/72
f 10/31/28 104/173/10 121/164/12
f 104/173/10 103/10/10 122/12/12
f 22/43/37 100/89/7 169/180/9
f 100/89/7 99/7/7 171/9/9
f 51/76/68 116/169/4 127/161/6
f 116/169/4 115/4/4 128/6/6
f 170/182/9 172/183/9 112/110/91
f 169/180/9 171/9/9 172/183/9
f 136/100/84 170/182/9 111/170/91
f 135/181/84 169/180/9 170/182/9
f 166/184/98 168/185/98 94/81/73
f 165/166/98 167/123/98 168/185/98
f 130/95/81 166/184/98 93/177/73
f 129/167/81 165/166/98 166/184/98
f 168/185/98 141/192/95 1/16/16
f 167/123/98 142/115/95 141/192/95
f 150/193/97 152/194/1 37/62/54
f 149/121/97 151/1/1 152/194/1
f 147/195/8 150/197/97 39/196/55
f 148/8/8 149/119/97 150/197/97
f 144/198/94 146/158/96 2/19/19
f 143/118/94 145/117/96 146/158/96
f 141/192/95 144/200/94 4/199/20
f 142/115/95 143/114/94 144/200/94
f 138/201/83 140/202/13 23/46/40
f 137/102/83 139/13/13 140/202/13
f 135/181/84 138/204/83 25/203/41
f 136/100/84 137/99/83 138/204/83
f 132/205/80 134/149/82 44/69/61
f 131/98/80 133/97/82 134/149/82
f 129/167/81 132/207/80 46/206/62
f 130/95/81 131/94/80 132/207/80
f 23/46/40 140/202/13 157/190/15
f 140/202/13 139/13/13 158/15/15
f 172/183/9 147/195/8 36/59/51
f 171/9/9 148/8/8 147/195/8
f 37/62/54 152/194/1 163/187/3
f 152/194/1 151/1/1 164/3/3
usemtl Brown_Light.001
f 17/40/35 69/91/78 68/92/79
f 20/42/36 72/93/11 69/91/78
f 45/71/63 78/103/85 77/104/86
f 48/72/64 81/105/14 78/103/85
f 31/57/49 87/111/92 86/112/93
f 34/58/50 90/113/5 87/111/92
f 88/125/92 92/5/5 89/124/92
f 85/128/93 89/124/92 84/127/93
f 79/130/85 83/14/14 80/129/85
f 75/132/86 79/130/85 80/129/85
f 70/135/78 74/11/11 71/134/78
f 66/137/79 70/135/78 71/134/78
f 62/139/75 3/22/21 6/24/22
f 60/87/75 64/142/76 61/140/75
f 57/143/2 6/144/22 2/19/19
f 59/2/2 61/147/75 58/145/2
f 154/148/15 44/69/61 134/149/82
f 158/15/15 82/131/14 156/150/15
f 118/151/12 16/37/33 98/152/74
f 122/12/12 73/136/11 120/153/12
f 124/154/6 30/55/47 110/155/89
f 128/6/6 91/126/5 126/156/6
f 160/157/3 2/19/19 146/158/96
f 164/3/3 58/145/2 162/159/3
f 75/132/86 125/160/6 76/133/86
f 127/161/6 126/156/6 125/160/6
f 77/104/86 109/108/89 45/71/63
f 123/162/6 110/155/89 109/108/89
f 63/86/76 119/163/12 64/142/76
f 121/164/12 120/153/12 119/163/12
f 65/141/76 97/83/74 3/22/21
f 117/165/12 98/152/74 97/83/74
f 84/127/93 161/186/3 85/128/93
f 163/187/3 162/159/3 161/186/3
f 86/112/93 145/117/96 31/57/49
f 159/188/3 146/158/96 145/117/96
f 66/137/79 155/189/15 67/138/79
f 157/190/15 156/150/15 155/189/15
f 68/92/79 133/97/82 17/40/35
f 153/191/15 134/149/82 133/97/82
f 17/40/35 20/42/36 69/91/78
f 20/42/36 16/37/33 72/93/11
f 45/71/63 48/72/64 78/103/85
f 48/72/64 44/69/61 81/105/14
f 31/57/49 34/58/50 87/111/92
f 34/58/50 30/55/47 90/113/5
f 88/125/92 91/126/5 92/5/5
f 85/128/93 88/125/92 89/124/92
f 79/130/85 82/131/14 83/14/14
f 75/132/86 76/133/86 79/130/85
f 70/135/78 73/136/11 74/11/11
f 66/137/79 67/138/79 70/135/78
f 62/139/75 65/141/76 3/22/21
f 60/87/75 63/86/76 64/142/76
f 57/143/2 62/146/75 6/144/22
f 59/2/2 60/84/75 61/147/75
f 154/148/15 81/105/14 44/69/61
f 158/15/15 83/14/14 82/131/14
f 118/151/12 72/93/11 16/37/33
f 122/12/12 74/11/11 73/136/11
f 124/154/6 90/113/5 30/55/47
f 128/6/6 92/5/5 91/126/5
f 160/157/3 57/143/2 2/19/19
f 164/3/3 59/2/2 58/145/2
f 75/132/86 127/161/6 125/160/6
f 127/161/6 128/6/6 126/156/6
f 77/104/86 123/162/6 109/108/89
f 123/162/6 124/154/6 110/155/89
f 63/86/76 121/164/12 119/163/12
f 121/164/12 122/12/12 120/153/12
f 65/141/76 117/165/12 97/83/74
f 117/165/12 118/151/12 98/152/74
f 84/127/93 163/187/3 161/186/3
f 163/187/3 164/3/3 162/159/3
f 86/112/93 159/188/3 145/117/96
f 159/188/3 160/157/3 146/158/96
f 66/137/79 157/190/15 155/189/15
f 157/190/15 158/15/15 156/150/15
f 68/92/79 153/191/15 133/97/82
f 153/191/15 154/148/15 134/149/82
usemtl Brown_Dark.001
f 87/111/92 91/126/5 88/125/92
f 86/112/93 88/125/92 85/128/93
f 78/103/85 82/131/14 79/130/85
f 76/133/86 78/103/85 79/130/85
f 69/91/78 73/136/11 70/135/78
f 67/138/79 69/91/78 70/135/78
f 61/140/75 65/141/76 62/139/75
f 58/145/2 62/146/75 57/143/2
f 156/150/15 81/105/14 154/148/15
f 120/153/12 72/93/11 118/151/12
f 126/156/6 90/113/5 124/154/6
f 162/159/3 57/143/2 160/157/3
f 76/133/86 123/162/6 77/104/86
f 125/160/6 124/154/6 123/162/6
f 64/142/76 117/165/12 65/141/76
f 119/163/12 118/151/12 117/165/12
f 85/128/93 159/188/3 86/112/93
f 161/186/3 160/157/3 159/188/3
f 67/138/79 153/191/15 68/92/79
f 155/189/15 154/148/15 153/191/15
f 87/111/92 90/113/5 91/126/5
f 86/112/93 87/111/92 88/125/92
f 78/103/85 81/105/14 82/131/14
f 76/133/86 77/104/86 78/103/85
f 69/91/78 72/93/11 73/136/11
f 67/138/79 68/92/79 69/91/78
f 61/140/75 64/142/76 65/141/76
f 58/145/2 61/147/75 62/146/75
f 156/150/15 82/131/14 81/105/14
f 120/153/12 73/136/11 72/93/11
f 126/156/6 91/126/5 90/113/5
f 162/159/3 58/145/2 57/143/2
f 76/133/86 125/160/6 123/162/6
f 125/160/6 126/156/6 124/154/6
f 64/142/76 119/163/12 117/165/12
f 119/163/12 120/153/12 118/151/12
f 85/128/93 161/186/3 159/188/3
f 161/186/3 162/159/3 160/157/3
f 67/138/79 155/189/15 153/191/15
f 155/189/15 156/150/15 154/148/15
