# Blender 4.5.0
# www.blender.org
mtllib Plateform.mtl
o Platform_small_b
v 2.173451 2.013195 -2.525918
v 3.047565 2.013195 -1.651805
v 2.473558 -0.144471 -2.945228
v 3.466875 -0.144471 -1.951911
v 3.047565 2.013195 2.695098
v 2.173451 2.013195 3.569211
v 3.466875 -0.144471 2.995205
v 2.473558 -0.144471 3.988522
v -3.047565 2.013195 -1.651805
v -2.173451 2.013195 -2.525918
v -3.466875 -0.144471 -1.951911
v -2.473558 -0.144471 -2.945228
v -2.173451 2.013195 3.569211
v -3.047565 2.013195 2.695098
v -2.473558 -0.144471 3.988522
v -3.466875 -0.144471 2.995205
v 2.456114 4.041069 2.039460
v 1.517814 4.041069 2.977761
v -1.517814 4.041069 2.977761
v -2.456114 4.041069 2.039460
v 1.517814 4.041069 -1.934467
v 2.456114 4.041069 -0.996167
v -2.456114 4.041069 -0.996167
v -1.517814 4.041069 -1.934467
v 3.009676 9.188171 1.760072
v 2.281718 9.188171 2.488029
v -2.281718 9.188171 2.488029
v -3.009676 9.188171 1.760072
v 2.281718 9.188171 -3.531323
v 3.009676 9.188171 -2.803365
v -3.009676 9.188171 -2.803365
v -2.281718 9.188171 -3.531323
v 2.276362 11.171726 2.488029
v 3.009676 11.171726 1.754716
v 1.979300 12.018539 2.164449
v 2.717474 12.130392 1.434799
v -2.717474 12.130392 1.434799
v -1.979300 12.018539 2.164449
v -3.009676 11.171726 1.754716
v -2.276362 11.171726 2.488029
v 3.009676 11.171726 -2.798009
v 2.276362 11.171726 -3.531323
v 2.717474 12.730221 -2.478092
v 1.979300 12.842072 -3.207743
v -1.979300 12.842072 -3.207743
v -2.717474 12.730221 -2.478092
v -2.276362 11.171726 -3.531323
v -3.009676 11.171726 -2.798009
vn -0.9816 0.1908 -0.0000
vn -0.0000 0.2800 0.9600
vn -0.9600 0.2800 -0.0000
vn -0.0000 0.1908 0.9816
vn -0.0000 0.2800 -0.9600
vn 0.9816 0.1908 -0.0000
vn -0.0000 -0.0000 1.0000
vn -0.0000 0.0947 0.9955
vn 0.9600 0.2800 -0.0000
vn 0.9740 0.2260 0.0161
vn 0.9740 0.2261 0.0160
vn -0.9943 -0.1069 -0.0000
vn -0.0000 -0.2963 -0.9551
vn 0.9943 -0.1069 -0.0000
vn -1.0000 -0.0000 -0.0000
vn -0.9740 0.2260 0.0161
vn -0.9740 0.2261 0.0160
vn -0.0000 -0.0000 -1.0000
vn -0.0000 0.9885 0.1515
vn -0.0000 0.3569 0.9341
vn -0.0000 0.1902 -0.9817
vn 1.0000 -0.0000 -0.0000
vn 0.6882 0.2295 -0.6882
vn -0.6882 0.2295 0.6882
vn 0.6882 0.2295 0.6882
vn -0.6882 0.2295 -0.6882
vn 0.6485 0.3988 0.6485
vn 0.6485 0.3988 0.6484
vn -0.6485 0.3988 0.6485
vn -0.6485 0.3988 0.6484
vn -0.6485 0.3988 -0.6485
vn 0.6485 0.3988 -0.6484
vn 0.6484 0.3988 -0.6485
vn -0.6726 -0.3085 -0.6726
vn 0.6726 -0.3085 -0.6726
vn 0.7070 -0.0181 0.7070
vn 0.7066 -0.0376 0.7066
vn 0.7070 -0.0177 0.7070
vn -0.7070 -0.0181 0.7070
vn -0.7066 -0.0376 0.7066
vn 0.6180 0.4351 0.6548
vn 0.6180 0.4351 0.6549
vn -0.6180 0.4351 0.6548
vn -0.6180 0.4351 0.6549
vn 0.6906 0.2605 -0.6747
vn -0.6906 0.2605 -0.6747
vn -0.7070 -0.0177 0.7070
vn -0.7071 0.0019 0.7071
vn 0.7071 0.0019 0.7071
vn 0.7071 0.0019 -0.7071
vn -0.7071 0.0019 -0.7071
vn -0.0000 0.1908 -0.9816
vt 0.625000 0.035853
vt 0.375000 0.214185
vt 0.375000 0.035815
vt 0.625000 0.785853
vt 0.625000 0.952247
vt 0.625000 0.964147
vt 0.625000 0.202247
vt 0.625000 0.214147
vt 0.375000 0.964185
vt 0.375000 0.785815
vt 0.625000 0.285853
vt 0.625000 0.452247
vt 0.625000 0.464147
vt 0.625000 0.535853
vt 0.375000 0.714185
vt 0.375000 0.535815
vt 0.625000 0.780234
vt 0.625000 0.969543
vt 0.625000 0.969766
vt 0.625000 0.797753
vt 0.625000 0.969766
vt 0.625000 0.702247
vt 0.625000 0.714147
vt 0.637136 0.707206
vt 0.625000 0.530456
vt 0.637136 0.542794
vt 0.625000 0.030234
vt 0.625000 0.219766
vt 0.625000 0.297753
vt 0.625000 0.469766
vt 0.625000 0.547753
vt 0.625000 0.719766
vt 0.625000 0.030234
vt 0.625000 0.219543
vt 0.625000 0.219766
vt 0.862864 0.707206
vt 0.875000 0.530456
vt 0.875000 0.719543
vt 0.625000 0.280234
vt 0.625000 0.469543
vt 0.625000 0.469766
vt 0.832206 0.737864
vt 0.667794 0.737864
vt 0.832206 0.737864
vt 0.655456 0.750000
vt 0.667794 0.512136
vt 0.844544 0.500000
vt 0.832206 0.512136
vt 0.625000 0.530234
vt 0.625000 0.719544
vt 0.375000 0.464185
vt 0.625000 1.000000
vt 0.375000 1.000000
vt 0.625000 0.000000
vt 0.625000 0.047753
vt 0.625000 0.530234
vt 0.625000 0.780234
vt 0.625000 0.719543
vt 0.655456 0.500000
vt 0.862864 0.542794
vt 0.625000 0.030456
vt 0.625000 0.280456
vt 0.375000 0.285815
vt 0.625000 0.797753
vt 0.625000 0.780456
vt 0.625000 0.047753
vt 0.625000 0.280234
vt 0.862864 0.542794
vt 0.667794 0.512136
vt 0.832206 0.512136
vt 0.862864 0.707206
vt 0.844544 0.750000
vt 0.625000 0.000000
s 1
usemtl Ground.003
f 14/1/1 11/2/1 16/3/1
f 6/4/2 19/5/2 13/6/2
f 14/1/3 23/7/3 9/8/3
f 6/4/4 15/9/4 8/10/4
f 10/11/5 21/12/5 1/13/5
f 2/14/6 7/15/6 4/16/6
f 26/17/7 40/18/7 27/19/7
f 18/20/8 27/21/8 19/5/8
f 2/14/9 17/22/9 5/23/9
f 36/24/10 41/25/11 43/26/11
f 23/7/12 28/27/12 31/28/12
f 24/29/13 29/30/13 21/12/13
f 22/31/14 25/32/14 17/22/14
f 28/33/15 48/34/15 31/35/15
f 37/36/16 48/37/17 39/38/17
f 32/39/18 42/40/18 29/41/18
f 38/44/20 33/45/20 35/43/20
f 44/46/21 47/47/21 45/48/21
f 30/49/22 34/50/22 25/32/22
f 2/14/23 3/51/23 1/13/23
f 15/9/24 14/52/24 16/53/24
f 8/10/25 5/23/25 6/4/25
f 10/11/26 11/2/26 9/8/26
f 17/22/27 6/4/28 5/23/28
f 14/1/29 19/54/30 20/55/30
f 10/11/31 23/7/31 24/29/31
f 21/12/32 2/14/33 1/13/33
f 31/28/34 24/29/34 23/7/34
f 30/56/35 21/12/35 29/30/35
f 26/57/36 17/22/37 25/32/38
f 27/21/39 20/52/40 19/5/40
f 34/58/41 35/43/42 33/45/41
f 39/38/43 38/44/44 37/36/44
f 42/59/45 43/26/45 41/25/45
f 47/47/46 46/60/46 45/48/46
f 28/33/47 40/54/48 39/61/48
f 34/50/49 26/17/36 25/32/38
f 42/40/50 30/49/50 29/41/50
f 32/39/51 48/34/51 47/62/51
f 10/11/52 3/51/52 12/63/52
f 14/1/1 9/8/1 11/2/1
f 6/4/2 18/64/2 19/5/2
f 14/1/3 20/55/3 23/7/3
f 6/4/4 13/6/4 15/9/4
f 10/11/5 24/29/5 21/12/5
f 2/14/6 5/23/6 7/15/6
f 26/17/7 33/65/7 40/18/7
f 18/20/8 26/57/8 27/21/8
f 2/14/9 22/31/9 17/22/9
f 36/24/10 34/58/11 41/25/11
f 23/7/12 20/66/12 28/27/12
f 24/29/13 32/67/13 29/30/13
f 22/31/14 30/56/14 25/32/14
f 28/33/15 39/61/15 48/34/15
f 37/36/16 46/60/17 48/37/17
f 32/39/18 47/62/18 42/40/18
f 38/44/20 40/72/20 33/45/20
f 44/46/21 42/59/21 47/47/21
f 30/49/22 41/25/22 34/50/22
f 2/14/23 4/16/23 3/51/23
f 15/9/24 13/6/24 14/52/24
f 8/10/25 7/15/25 5/23/25
f 10/11/26 12/63/26 11/2/26
f 17/22/27 18/64/27 6/4/28
f 14/1/29 13/73/29 19/54/30
f 10/11/31 9/8/31 23/7/31
f 21/12/32 22/31/32 2/14/33
f 31/28/34 32/67/34 24/29/34
f 30/56/35 22/31/35 21/12/35
f 26/57/36 18/20/37 17/22/37
f 27/21/39 28/52/47 20/52/40
f 34/58/41 36/24/41 35/43/42
f 39/38/43 40/72/43 38/44/44
f 42/59/45 44/46/45 43/26/45
f 47/47/46 48/37/46 46/60/46
f 28/33/47 27/54/39 40/54/48
f 34/50/49 33/65/49 26/17/36
f 42/40/50 41/25/50 30/49/50
f 32/39/51 31/35/51 48/34/51
f 10/11/52 1/13/52 3/51/52
usemtl Ground_Light.003
f 38/42/19 35/43/19 36/24/19
f 36/24/19 43/26/19 46/68/19
f 43/26/19 44/69/19 46/68/19
f 44/69/19 45/70/19 46/68/19
f 46/68/19 37/71/19 36/24/19
f 37/71/19 38/42/19 36/24/19
