# Blender 4.5.0
# www.blender.org
mtllib SmallPlateform.mtl
o Platform_small
v 2.173451 1.464290 17.266228
v 3.047565 1.464290 18.140341
v 2.473558 -0.693376 16.846918
v 3.466875 -0.693376 17.840235
v 3.047565 1.464291 22.487244
v 2.173451 1.464291 23.361357
v 3.466875 -0.693375 22.787350
v 2.473558 -0.693375 23.780666
v -3.047565 1.464290 18.140341
v -2.173451 1.464290 17.266228
v -3.466875 -0.693376 17.840235
v -2.473558 -0.693376 16.846918
v -2.173451 1.464291 23.361357
v -3.047565 1.464291 22.487244
v -2.473558 -0.693375 23.780666
v -3.466875 -0.693375 22.787350
v 2.456114 3.492164 21.831606
v 1.517814 3.492165 22.769905
v -1.517814 3.492165 22.769905
v -2.456114 3.492164 21.831606
v 1.517814 3.492164 17.857677
v 2.456114 3.492164 18.795979
v -2.456114 3.492164 18.795979
v -1.517814 3.492164 17.857677
v 3.009676 8.639267 21.552216
v 2.281718 8.639267 22.280174
v -2.281718 8.639267 22.280174
v -3.009676 8.639267 21.552216
v 2.281718 8.639267 16.260822
v 3.009676 8.639267 16.988779
v -3.009676 8.639267 16.988779
v -2.281718 8.639267 16.260822
v 2.276362 10.622822 22.280174
v 3.009676 10.622822 21.546860
v 1.979300 10.859798 21.987972
v 2.717474 10.859798 21.249798
v -2.717474 10.859798 21.249798
v -1.979300 10.859798 21.987972
v -3.009676 10.622822 21.546860
v -2.276362 10.622822 22.280174
v 3.009676 10.622822 16.994135
v 2.276362 10.622822 16.260820
v 2.717474 10.859798 17.291197
v 1.979300 10.859798 16.553022
v -1.979300 10.859798 16.553022
v -2.717474 10.859798 17.291197
v -2.276362 10.622822 16.260820
v -3.009676 10.622822 16.994135
vn -0.9816 0.1908 -0.0000
vn -0.0000 0.2800 0.9600
vn -0.9600 0.2800 -0.0000
vn -0.0000 0.1908 0.9816
vn -0.0000 0.2800 -0.9600
vn 0.9816 0.1908 -0.0000
vn -0.0000 -0.0000 1.0000
vn -0.0000 0.0947 0.9955
vn 0.9600 0.2800 -0.0000
vn 0.6299 0.7767 -0.0000
vn -0.9943 -0.1069 -0.0000
vn -0.0000 -0.2963 -0.9551
vn 0.9943 -0.1069 -0.0000
vn -1.0000 -0.0000 -0.0000
vn -0.6299 0.7767 -0.0000
vn -0.0000 -0.0000 -1.0000
vn -0.0000 1.0000 -0.0000
vn -0.0000 0.7767 0.6299
vn -0.0000 0.7767 -0.6299
vn 1.0000 -0.0000 -0.0000
vn 0.6882 0.2295 -0.6882
vn -0.6882 0.2295 0.6882
vn 0.6882 0.2295 0.6882
vn -0.6882 0.2295 -0.6882
vn 0.6485 0.3988 0.6484
vn 0.6485 0.3988 0.6485
vn -0.6485 0.3988 0.6484
vn -0.6485 0.3988 -0.6485
vn 0.6485 0.3988 -0.6485
vn 0.6484 0.3988 -0.6485
vn -0.6726 -0.3085 -0.6726
vn 0.6726 -0.3085 -0.6726
vn 0.7070 -0.0181 0.7070
vn 0.7066 -0.0376 0.7066
vn 0.7070 -0.0177 0.7070
vn -0.7070 -0.0181 0.7070
vn -0.7066 -0.0376 0.7066
vn 0.3496 0.8692 0.3496
vn -0.3496 0.8692 0.3496
vn 0.3496 0.8692 -0.3496
vn -0.3496 0.8692 -0.3496
vn -0.7070 -0.0177 0.7070
vn -0.7071 0.0019 0.7071
vn 0.7071 0.0019 0.7071
vn 0.7071 0.0019 -0.7071
vn -0.7071 0.0019 -0.7071
vn -0.0000 0.1908 -0.9816
vn -0.6485 0.3988 0.6485
vt 0.625000 0.035853
vt 0.375000 0.214185
vt 0.375000 0.035815
vt 0.625000 0.785853
vt 0.625000 0.952247
vt 0.625000 0.964147
vt 0.625000 0.202247
vt 0.625000 0.214147
vt 0.375000 0.964185
vt 0.375000 0.785815
vt 0.625000 0.285853
vt 0.625000 0.452247
vt 0.625000 0.464147
vt 0.625000 0.535853
vt 0.375000 0.714185
vt 0.375000 0.535815
vt 0.625000 0.780234
vt 0.625000 0.969543
vt 0.625000 0.969766
vt 0.625000 0.797753
vt 0.625000 0.969766
vt 0.625000 0.702247
vt 0.625000 0.714147
vt 0.637136 0.707206
vt 0.625000 0.530456
vt 0.637136 0.542794
vt 0.625000 0.030234
vt 0.625000 0.219766
vt 0.625000 0.297753
vt 0.625000 0.469766
vt 0.625000 0.547753
vt 0.625000 0.719766
vt 0.625000 0.030234
vt 0.625000 0.219543
vt 0.625000 0.219766
vt 0.862864 0.542794
vt 0.875000 0.719543
vt 0.862864 0.707206
vt 0.625000 0.280234
vt 0.625000 0.469543
vt 0.625000 0.469766
vt 0.667794 0.737864
vt 0.862864 0.542794
vt 0.844544 0.750000
vt 0.655456 0.750000
vt 0.667794 0.512136
vt 0.844544 0.500000
vt 0.832206 0.512136
vt 0.625000 0.530234
vt 0.625000 0.719544
vt 0.625000 1.000000
vt 0.375000 1.000000
vt 0.375000 0.285815
vt 0.625000 0.797753
vt 0.625000 0.000000
vt 0.625000 0.047753
vt 0.625000 0.530234
vt 0.625000 0.780234
vt 0.625000 0.719543
vt 0.832206 0.737864
vt 0.655456 0.500000
vt 0.625000 0.030456
vt 0.625000 0.280456
vt 0.375000 0.464185
vt 0.625000 0.780456
vt 0.625000 0.047753
vt 0.625000 0.280234
vt 0.875000 0.530456
vt 0.667794 0.512136
vt 0.832206 0.512136
vt 0.862864 0.707206
vt 0.832206 0.737864
vt 0.625000 0.000000
s 1
usemtl Ground.004
f 14/1/1 11/2/1 16/3/1
f 6/4/2 19/5/2 13/6/2
f 14/1/3 23/7/3 9/8/3
f 6/4/4 15/9/4 8/10/4
f 10/11/5 21/12/5 1/13/5
f 2/14/6 7/15/6 4/16/6
f 26/17/7 40/18/7 27/19/7
f 18/20/8 27/21/8 19/5/8
f 2/14/9 17/22/9 5/23/9
f 36/24/10 41/25/10 43/26/10
f 23/7/11 28/27/11 31/28/11
f 24/29/12 29/30/12 21/12/12
f 22/31/13 25/32/13 17/22/13
f 28/33/14 48/34/14 31/35/14
f 46/36/15 39/37/15 37/38/15
f 32/39/16 42/40/16 29/41/16
f 35/42/18 40/44/18 33/45/18
f 44/46/19 47/47/19 45/48/19
f 30/49/20 34/50/20 25/32/20
f 4/16/21 1/13/21 2/14/21
f 15/9/22 14/51/22 16/52/22
f 8/10/23 5/23/23 6/4/23
f 12/53/24 9/8/24 10/11/24
f 5/23/25 18/54/25 6/4/26
f 14/1/27 19/55/27 20/56/27
f 10/11/28 23/7/28 24/29/28
f 1/13/29 22/31/30 2/14/29
f 31/28/31 24/29/31 23/7/31
f 30/57/32 21/12/32 29/30/32
f 26/58/33 17/22/34 25/32/35
f 27/21/36 20/51/37 19/5/37
f 36/24/38 33/45/38 34/59/38
f 39/37/39 38/60/39 37/38/39
f 44/46/40 41/25/40 42/61/40
f 47/47/41 46/36/41 45/48/41
f 28/33/42 40/55/43 39/62/43
f 34/50/44 26/17/33 25/32/35
f 42/40/45 30/49/45 29/41/45
f 32/39/46 48/34/46 47/63/46
f 10/11/47 3/64/47 12/53/47
f 14/1/1 9/8/1 11/2/1
f 6/4/2 18/54/2 19/5/2
f 14/1/3 20/56/3 23/7/3
f 6/4/4 13/6/4 15/9/4
f 10/11/5 24/29/5 21/12/5
f 2/14/6 5/23/6 7/15/6
f 26/17/7 33/65/7 40/18/7
f 18/20/8 26/58/8 27/21/8
f 2/14/9 22/31/9 17/22/9
f 36/24/10 34/59/10 41/25/10
f 23/7/11 20/66/11 28/27/11
f 24/29/12 32/67/12 29/30/12
f 22/31/13 30/57/13 25/32/13
f 28/33/14 39/62/14 48/34/14
f 46/36/15 48/68/15 39/37/15
f 32/39/16 47/63/16 42/40/16
f 35/42/18 38/60/18 40/44/18
f 44/46/19 42/61/19 47/47/19
f 30/49/20 41/25/20 34/50/20
f 4/16/21 3/64/21 1/13/21
f 15/9/22 13/6/22 14/51/22
f 8/10/23 7/15/23 5/23/23
f 12/53/24 11/2/24 9/8/24
f 5/23/25 17/22/25 18/54/25
f 14/1/27 13/73/48 19/55/27
f 10/11/28 9/8/28 23/7/28
f 1/13/29 21/12/30 22/31/30
f 31/28/31 32/67/31 24/29/31
f 30/57/32 22/31/32 21/12/32
f 26/58/33 18/20/34 17/22/34
f 27/21/36 28/51/42 20/51/37
f 36/24/38 35/42/38 33/45/38
f 39/37/39 40/44/39 38/60/39
f 44/46/40 43/26/40 41/25/40
f 47/47/41 48/68/41 46/36/41
f 28/33/42 27/55/36 40/55/43
f 34/50/44 33/65/44 26/17/33
f 42/40/45 41/25/45 30/49/45
f 32/39/46 31/35/46 48/34/46
f 10/11/47 1/13/47 3/64/47
usemtl Ground_Light.004
f 35/42/17 36/24/17 46/43/17
f 36/24/17 43/26/17 46/43/17
f 43/26/17 44/69/17 46/43/17
f 44/69/17 45/70/17 46/43/17
f 46/43/17 37/71/17 38/72/17
f 38/72/17 35/42/17 46/43/17
