# Blender 4.5.0
# www.blender.org
mtllib SmallPlateform.mtl
o Platform_small
v 0.434690 0.396692 -0.505184
v 0.609513 0.396692 -0.330361
v 0.494712 -0.034841 -0.589046
v 0.693375 -0.034841 -0.390382
v 0.609513 0.396692 0.539020
v 0.434690 0.396692 0.713842
v 0.693375 -0.034841 0.599041
v 0.494712 -0.034841 0.797704
v -0.609513 0.396692 -0.330361
v -0.434690 0.396692 -0.505184
v -0.693375 -0.034841 -0.390382
v -0.494712 -0.034841 -0.589046
v -0.434690 0.396692 0.713842
v -0.609513 0.396692 0.539020
v -0.494712 -0.034841 0.797704
v -0.693375 -0.034841 0.599041
v 0.491223 0.802267 0.407892
v 0.303563 0.802267 0.595552
v -0.303563 0.802267 0.595552
v -0.491223 0.802267 0.407892
v 0.303563 0.802267 -0.386893
v 0.491223 0.802267 -0.199233
v -0.491223 0.802267 -0.199233
v -0.303563 0.802267 -0.386893
v 0.601935 1.831688 0.352014
v 0.456344 1.831688 0.497606
v -0.456344 1.831688 0.497606
v -0.601935 1.831688 0.352014
v 0.456344 1.831688 -0.706265
v 0.601935 1.831688 -0.560673
v -0.601935 1.831688 -0.560673
v -0.456344 1.831688 -0.706265
v 0.455272 2.228399 0.497606
v 0.601935 2.228399 0.350943
v 0.395860 2.275794 0.439165
v 0.543495 2.275794 0.291531
v -0.543495 2.275794 0.291531
v -0.395860 2.275794 0.439166
v -0.601935 2.228399 0.350943
v -0.455272 2.228399 0.497606
v 0.601935 2.228399 -0.559602
v 0.455272 2.228399 -0.706265
v 0.543495 2.275794 -0.500189
v 0.395860 2.275794 -0.647824
v -0.395860 2.275794 -0.647824
v -0.543495 2.275794 -0.500189
v -0.455272 2.228399 -0.706265
v -0.601935 2.228399 -0.559602
vn -0.9816 0.1908 -0.0000
vn -0.0000 0.2800 0.9600
vn -0.9600 0.2800 -0.0000
vn -0.0000 0.1908 0.9816
vn -0.0000 0.2800 -0.9600
vn 0.9816 0.1908 -0.0000
vn -0.0000 -0.0000 1.0000
vn -0.0000 0.0947 0.9955
vn 0.9600 0.2800 -0.0000
vn 0.6299 0.7767 -0.0000
vn -0.9943 -0.1069 -0.0000
vn -0.0000 -0.2963 -0.9551
vn 0.9943 -0.1069 -0.0000
vn -1.0000 -0.0000 -0.0000
vn -0.6299 0.7767 -0.0000
vn -0.0000 -0.0000 -1.0000
vn -0.0000 1.0000 -0.0000
vn -0.0000 0.7767 0.6299
vn -0.0000 0.7767 -0.6299
vn 1.0000 -0.0000 -0.0000
vn 0.6882 0.2295 -0.6882
vn -0.6882 0.2295 0.6882
vn 0.6882 0.2295 0.6882
vn -0.6882 0.2295 -0.6882
vn 0.6485 0.3988 0.6485
vn 0.6485 0.3988 0.6484
vn -0.6485 0.3988 0.6485
vn -0.6485 0.3988 0.6484
vn -0.6485 0.3988 -0.6484
vn -0.6485 0.3988 -0.6485
vn 0.6485 0.3988 -0.6484
vn 0.6484 0.3988 -0.6485
vn -0.6726 -0.3085 -0.6726
vn 0.6726 -0.3085 -0.6726
vn 0.7070 -0.0181 0.7070
vn 0.7066 -0.0376 0.7066
vn 0.7070 -0.0177 0.7070
vn -0.7070 -0.0181 0.7070
vn -0.7066 -0.0376 0.7066
vn 0.3496 0.8692 0.3496
vn -0.3496 0.8692 0.3496
vn 0.3496 0.8692 -0.3496
vn -0.3496 0.8692 -0.3496
vn -0.3496 0.8693 -0.3496
vn -0.7070 -0.0177 0.7070
vn -0.7071 0.0019 0.7071
vn 0.7071 0.0019 0.7071
vn 0.7071 0.0019 -0.7071
vn -0.7071 0.0019 -0.7071
vn -0.0000 0.1908 -0.9816
vt 0.625000 0.035853
vt 0.375000 0.214185
vt 0.375000 0.035815
vt 0.625000 0.785853
vt 0.625000 0.952247
vt 0.625000 0.964147
vt 0.625000 0.202247
vt 0.625000 0.214147
vt 0.375000 0.964185
vt 0.375000 0.785815
vt 0.625000 0.285853
vt 0.625000 0.452247
vt 0.625000 0.464147
vt 0.625000 0.535853
vt 0.375000 0.714185
vt 0.375000 0.535815
vt 0.625000 0.780234
vt 0.625000 0.969543
vt 0.625000 0.969766
vt 0.625000 0.797753
vt 0.625000 0.969766
vt 0.625000 0.702247
vt 0.625000 0.714147
vt 0.637136 0.707206
vt 0.625000 0.530456
vt 0.637136 0.542794
vt 0.625000 0.030234
vt 0.625000 0.219766
vt 0.625000 0.297753
vt 0.625000 0.469766
vt 0.625000 0.547753
vt 0.625000 0.719766
vt 0.625000 0.030234
vt 0.625000 0.219543
vt 0.625000 0.219766
vt 0.862864 0.542794
vt 0.875000 0.719543
vt 0.862864 0.707206
vt 0.625000 0.280234
vt 0.625000 0.469543
vt 0.625000 0.469766
vt 0.862864 0.542794
vt 0.832206 0.737864
vt 0.667794 0.737864
vt 0.844544 0.750000
vt 0.655456 0.750000
vt 0.667794 0.512136
vt 0.844544 0.500000
vt 0.832206 0.512136
vt 0.625000 0.530234
vt 0.625000 0.719544
vt 0.625000 1.000000
vt 0.375000 1.000000
vt 0.375000 0.285815
vt 0.625000 0.797753
vt 0.625000 0.000000
vt 0.625000 0.047753
vt 0.625000 0.530234
vt 0.625000 0.780234
vt 0.625000 0.719543
vt 0.832206 0.737864
vt 0.655456 0.500000
vt 0.625000 0.030456
vt 0.625000 0.280456
vt 0.375000 0.464185
vt 0.625000 0.780456
vt 0.625000 0.047753
vt 0.625000 0.280234
vt 0.875000 0.530456
vt 0.667794 0.512136
vt 0.832206 0.512136
vt 0.862864 0.707206
vt 0.625000 0.000000
s 1
usemtl Ground.003
f 14/1/1 11/2/1 16/3/1
f 6/4/2 19/5/2 13/6/2
f 14/1/3 23/7/3 9/8/3
f 6/4/4 15/9/4 8/10/4
f 10/11/5 21/12/5 1/13/5
f 2/14/6 7/15/6 4/16/6
f 26/17/7 40/18/7 27/19/7
f 18/20/8 27/21/8 19/5/8
f 2/14/9 17/22/9 5/23/9
f 36/24/10 41/25/10 43/26/10
f 23/7/11 28/27/11 31/28/11
f 24/29/12 29/30/12 21/12/12
f 22/31/13 25/32/13 17/22/13
f 28/33/14 48/34/14 31/35/14
f 46/36/15 39/37/15 37/38/15
f 32/39/16 42/40/16 29/41/16
f 35/44/18 40/45/18 33/46/18
f 44/47/19 47/48/19 45/49/19
f 30/50/20 34/51/20 25/32/20
f 4/16/21 1/13/21 2/14/21
f 15/9/22 14/52/22 16/53/22
f 8/10/23 5/23/23 6/4/23
f 12/54/24 9/8/24 10/11/24
f 5/23/25 18/55/26 6/4/25
f 14/1/27 19/56/28 20/57/28
f 10/11/29 23/7/30 24/29/30
f 1/13/31 22/31/32 2/14/31
f 31/28/33 24/29/33 23/7/33
f 30/58/34 21/12/34 29/30/34
f 26/59/35 17/22/36 25/32/37
f 27/21/38 20/52/39 19/5/39
f 36/24/40 33/46/40 34/60/40
f 39/37/41 38/61/41 37/38/41
f 44/47/42 41/25/42 42/62/42
f 47/48/43 46/36/43 45/49/44
f 28/33/45 40/56/46 39/63/46
f 34/51/47 26/17/35 25/32/37
f 42/40/48 30/50/48 29/41/48
f 32/39/49 48/34/49 47/64/49
f 10/11/50 3/65/50 12/54/50
f 14/1/1 9/8/1 11/2/1
f 6/4/2 18/55/2 19/5/2
f 14/1/3 20/57/3 23/7/3
f 6/4/4 13/6/4 15/9/4
f 10/11/5 24/29/5 21/12/5
f 2/14/6 5/23/6 7/15/6
f 26/17/7 33/66/7 40/18/7
f 18/20/8 26/59/8 27/21/8
f 2/14/9 22/31/9 17/22/9
f 36/24/10 34/60/10 41/25/10
f 23/7/11 20/67/11 28/27/11
f 24/29/12 32/68/12 29/30/12
f 22/31/13 30/58/13 25/32/13
f 28/33/14 39/63/14 48/34/14
f 46/36/15 48/69/15 39/37/15
f 32/39/16 47/64/16 42/40/16
f 35/44/18 38/61/18 40/45/18
f 44/47/19 42/62/19 47/48/19
f 30/50/20 41/25/20 34/51/20
f 4/16/21 3/65/21 1/13/21
f 15/9/22 13/6/22 14/52/22
f 8/10/23 7/15/23 5/23/23
f 12/54/24 11/2/24 9/8/24
f 5/23/25 17/22/26 18/55/26
f 14/1/27 13/73/27 19/56/28
f 10/11/29 9/8/29 23/7/30
f 1/13/31 21/12/32 22/31/32
f 31/28/33 32/68/33 24/29/33
f 30/58/34 22/31/34 21/12/34
f 26/59/35 18/20/36 17/22/36
f 27/21/38 28/52/45 20/52/39
f 36/24/40 35/44/40 33/46/40
f 39/37/41 40/45/41 38/61/41
f 44/47/42 43/26/42 41/25/42
f 47/48/43 48/69/43 46/36/43
f 28/33/45 27/56/38 40/56/46
f 34/51/47 33/66/47 26/17/35
f 42/40/48 41/25/48 30/50/48
f 32/39/49 31/35/49 48/34/49
f 10/11/50 1/13/50 3/65/50
usemtl Ground_Light.003
f 46/42/17 38/43/17 36/24/17
f 36/24/17 43/26/17 44/70/17
f 44/70/17 45/71/17 46/42/17
f 46/42/17 37/72/17 38/43/17
f 38/43/17 35/44/17 36/24/17
f 36/24/17 44/70/17 46/42/17
